<?xml version="1.0" standalone="no"?>
<!DOCTYPE svg PUBLIC "-//W3C//DTD SVG 20010904//EN"
 "http://www.w3.org/TR/2001/REC-SVG-20010904/DTD/svg10.dtd">
<svg version="1.0" xmlns="http://www.w3.org/2000/svg"
 width="1024.000000pt" height="1024.000000pt" viewBox="0 0 1024.000000 1024.000000"
 preserveAspectRatio="xMidYMid meet">
<metadata>
Created by potrace 1.15, written by Peter Selinger 2001-2017
</metadata>
<g transform="translate(0.000000,1024.000000) scale(0.100000,-0.100000)"
fill="#000000" stroke="none">
<path d="M4790 10229 c-47 -4 -143 -13 -215 -19 -334 -28 -757 -122 -1130
-250 -204 -70 -411 -159 -630 -270 -291 -147 -525 -292 -760 -468 -424 -319
-800 -704 -1106 -1132 -312 -436 -588 -997 -730 -1485 -103 -352 -157 -619
-188 -930 -28 -287 -33 -410 -27 -650 7 -266 8 -275 25 -460 12 -119 15 -139
46 -325 54 -322 155 -681 282 -1005 59 -150 70 -173 162 -365 387 -807 1019
-1524 1790 -2033 116 -77 170 -110 321 -196 66 -38 345 -178 415 -208 559
-241 1088 -374 1685 -423 144 -12 650 -12 790 0 668 57 1277 223 1846 503 306
152 462 245 776 466 356 251 840 733 1113 1110 66 90 262 393 315 486 63 111
216 414 259 515 219 515 355 1064 399 1610 9 111 9 720 0 835 -4 50 -12 131
-18 180 -6 50 -13 101 -15 115 -19 160 -75 431 -130 635 -145 528 -367 1020
-664 1470 -561 850 -1388 1536 -2301 1909 -36 15 -74 31 -85 36 -112 53 -482
169 -700 220 -187 44 -215 49 -465 90 -30 5 -113 14 -185 20 -71 6 -174 15
-228 20 -115 12 -525 11 -647 -1z m740 -1007 c233 -25 561 -89 753 -148 166
-51 227 -72 362 -127 260 -104 615 -292 799 -423 261 -186 373 -279 592 -498
414 -415 670 -804 924 -1401 10 -22 57 -157 88 -250 77 -229 145 -554 174
-825 27 -254 14 -856 -22 -1045 -6 -27 -19 -102 -31 -165 -98 -540 -336 -1104
-663 -1575 -347 -500 -859 -963 -1383 -1251 -27 -15 -75 -41 -108 -60 -110
-60 -400 -182 -566 -238 -245 -82 -408 -122 -719 -176 -316 -55 -886 -53
-1250 5 -580 93 -1149 315 -1643 642 -366 242 -779 637 -1038 993 -209 288
-381 599 -508 917 -53 134 -76 200 -125 360 -42 135 -85 332 -126 578 -35 210
-47 728 -22 975 29 294 98 627 182 880 70 210 135 367 231 559 208 419 446
749 779 1081 474 475 974 782 1650 1013 230 79 603 155 870 178 69 5 130 12
135 14 20 8 562 -3 665 -13z"/>
<path d="M4992 7990 c-526 -55 -993 -432 -1162 -938 -62 -189 -63 -193 -67
-734 l-4 -498 315 0 316 0 0 430 c0 532 5 565 109 744 147 252 444 402 727
367 319 -39 575 -262 653 -569 20 -75 21 -109 21 -526 l0 -446 316 0 315 0 -4
513 c-4 566 -3 557 -76 754 -75 204 -162 336 -330 503 -165 165 -321 265 -522
334 -171 59 -417 86 -607 66z"/>
<path d="M3290 4145 l0 -1305 1855 0 1855 0 0 1305 0 1305 -1855 0 -1855 0 0
-1305z"/>
</g>
</svg>
